<svg xmlns="http://www.w3.org/2000/svg" width="800" height="400" viewBox="0 0 800 400">
  <defs>
    <linearGradient id="bg" x1="0" y1="0" x2="1" y2="1">
      <stop offset="0%" stop-color="#0f172a"/>
      <stop offset="100%" stop-color="#1e1b4b"/>
    </linearGradient>
    <linearGradient id="lineGrad" x1="0" y1="0" x2="1" y2="0">
      <stop offset="0%" stop-color="#3b82f6" stop-opacity="0.2"/>
      <stop offset="50%" stop-color="#60a5fa" stop-opacity="1"/>
      <stop offset="100%" stop-color="#93c5fd" stop-opacity="0.2"/>
    </linearGradient>
  </defs>
  <rect width="800" height="400" fill="url(#bg)"/>
  <path d="M 0 300 Q 200 250 400 150 T 800 50" fill="none" stroke="url(#lineGrad)" stroke-width="4"/>
  <path d="M 0 320 Q 200 280 400 200 T 800 100" fill="none" stroke="#8b5cf6" stroke-width="2" stroke-opacity="0.6"/>
  <circle cx="400" cy="150" r="6" fill="#60a5fa" />
  <circle cx="200" cy="225" r="4" fill="#8b5cf6" />
  <circle cx="600" cy="100" r="8" fill="#3b82f6" opacity="0.8"/>
  <g stroke="#ffffff" stroke-opacity="0.05" stroke-width="1">
    <line x1="100" y1="0" x2="100" y2="400"/>
    <line x1="200" y1="0" x2="200" y2="400"/>
    <line x1="300" y1="0" x2="300" y2="400"/>
    <line x1="400" y1="0" x2="400" y2="400"/>
    <line x1="500" y1="0" x2="500" y2="400"/>
    <line x1="600" y1="0" x2="600" y2="400"/>
    <line x1="700" y1="0" x2="700" y2="400"/>
    <line x1="0" y1="100" x2="800" y2="100"/>
    <line x1="0" y1="200" x2="800" y2="200"/>
    <line x1="0" y1="300" x2="800" y2="300"/>
  </g>
</svg>
